<svg xmlns="http://www.w3.org/2000/svg" xmlns:xlink="http://www.w3.org/1999/xlink"><symbol id="Calendar" viewBox="0 0 40 40">
<path fill-rule="evenodd" clip-rule="evenodd" d="M5 28.1167V15.4283H35V28.2183C35 33.45 31.7069 36.6667 26.438 36.6667H13.5456C8.32602 36.6667 5 33.3833 5 28.1167ZM13.2656 24.0167C12.5082 24.0517 11.8825 23.45 11.8496 22.685C11.8496 21.9183 12.4424 21.285 13.1998 21.25C13.9407 21.25 14.5499 21.835 14.5664 22.5833C14.5993 23.3517 14.0066 23.985 13.2656 24.0167ZM20.0329 24.0167C19.2755 24.0517 18.6498 23.45 18.6169 22.685C18.6169 21.9183 19.2097 21.285 19.9671 21.25C20.708 21.25 21.3172 21.835 21.3337 22.5833C21.3666 23.3517 20.7739 23.985 20.0329 24.0167ZM26.7508 30.15C25.9934 30.1333 25.3842 29.5 25.3842 28.7333C25.3677 27.9667 25.9769 27.335 26.7344 27.3183H26.7508C27.5247 27.3183 28.1504 27.9517 28.1504 28.7333C28.1504 29.5167 27.5247 30.15 26.7508 30.15ZM18.6169 28.7333C18.6498 29.5 19.2755 30.1017 20.0329 30.0667C20.7739 30.035 21.3666 29.4017 21.3337 28.635C21.3172 27.885 20.708 27.3 19.9671 27.3C19.2097 27.335 18.6169 27.9667 18.6169 28.7333ZM11.8332 28.7333C11.8661 29.5 12.4918 30.1017 13.2492 30.0667C13.9901 30.035 14.5829 29.4017 14.5499 28.635C14.5335 27.885 13.9243 27.3 13.1833 27.3C12.4259 27.335 11.8332 27.9667 11.8332 28.7333ZM25.4007 22.6683C25.4007 21.9017 25.9934 21.285 26.7508 21.2683C27.4918 21.2683 28.0845 21.8667 28.1175 22.6017C28.1339 23.3683 27.5412 24.0017 26.8002 24.0167C26.0428 24.0333 25.4171 23.45 25.4007 22.685V22.6683Z" fill="#4D77FF"/>
<path opacity="0.4" d="M5.0056 15.4282C5.02701 14.4498 5.10933 12.5082 5.26411 11.8832C6.05445 8.36816 8.73831 6.13483 12.5748 5.8165H27.4266C31.2301 6.1515 33.9469 8.39983 34.7372 11.8832C34.8903 12.4915 34.9727 14.4482 34.9941 15.4282H5.0056Z" fill="#4D77FF"/>
<path d="M13.8414 10.9833C14.5659 10.9833 15.1093 10.435 15.1093 9.69999V4.61833C15.1093 3.88333 14.5659 3.33333 13.8414 3.33333C13.117 3.33333 12.5736 3.88333 12.5736 4.61833V9.69999C12.5736 10.435 13.117 10.9833 13.8414 10.9833" fill="#4D77FF"/>
<path d="M26.1582 10.9833C26.8662 10.9833 27.4261 10.435 27.4261 9.69999V4.61833C27.4261 3.88333 26.8662 3.33333 26.1582 3.33333C25.4338 3.33333 24.8904 3.88333 24.8904 4.61833V9.69999C24.8904 10.435 25.4338 10.9833 26.1582 10.9833" fill="#4D77FF"/>
</symbol><symbol id="cheack" viewBox="0 0 24 24">
<circle cx="12" cy="12" r="12" fill="#4D77FF"/>
<path d="M17.3334 8L10 15.3333L6.66669 12" stroke="white" stroke-width="2" stroke-linecap="round" stroke-linejoin="round"/>
</symbol><symbol id="Choose" viewBox="0 0 40 40">
<path d="M19.9947 25.291C12.8063 25.291 6.66632 26.4243 6.66632 30.9577C6.66632 35.4927 12.768 36.666 19.9947 36.666C27.183 36.666 33.323 35.5343 33.323 30.9993C33.323 26.4643 27.223 25.291 19.9947 25.291Z" fill="#4D77FF"/>
<path opacity="0.4" d="M19.9947 20.9728C24.8913 20.9728 28.8147 17.0478 28.8147 12.1528C28.8147 7.25784 24.8913 3.33284 19.9947 3.33284C15.0997 3.33284 11.1747 7.25784 11.1747 12.1528C11.1747 17.0478 15.0997 20.9728 19.9947 20.9728Z" fill="#4D77FF"/>
</symbol><symbol id="Ellipse" viewBox="0 0 833 391">
<circle cx="620" cy="620" r="620" fill="#4D77FF"/>
</symbol><symbol id="Ellipse2" viewBox="0 0 676 454">
<circle cx="401.5" cy="401.5" r="401.5" fill="#4D77FF"/>
</symbol><symbol id="fb" viewBox="0 0 21 20">
<path d="M0.00201416 10.002C0.0031777 14.9214 3.58042 19.1101 8.43901 19.881V12.892H5.90201V10.002H8.44201V7.80204C8.32847 6.75958 8.68454 5.72064 9.41365 4.96698C10.1428 4.21332 11.1694 3.82306 12.215 3.90204C12.9656 3.91417 13.7142 3.98101 14.455 4.10205V6.56104H13.191C12.7559 6.50405 12.3184 6.64777 12.0018 6.95171C11.6852 7.25566 11.5238 7.68693 11.563 8.12404V10.002H14.334L13.891 12.893H11.563V19.881C16.8175 19.0506 20.5021 14.2518 19.9475 8.96112C19.3929 3.67041 14.7933 -0.260027 9.48084 0.0172227C4.16838 0.294472 0.00285864 4.68235 0.00201416 10.002Z" fill="#121212"/>
</symbol><symbol id="insta" viewBox="0 0 19 19">
<path d="M9.00201 18.0409C6.54201 18.0409 6.25201 18.0279 5.29201 17.9859C4.54339 17.9613 3.80445 17.8091 3.10701 17.5359C1.90033 17.0663 0.946155 16.1117 0.477014 14.9049C0.21432 14.2049 0.072632 13.4654 0.0580142 12.7179C0.00201416 11.7599 0.00201416 11.4459 0.00201416 9.00488C0.00201416 6.53788 0.0150142 6.24988 0.0580142 5.29488C0.0729518 4.5484 0.214635 3.80989 0.477014 3.11088C0.945645 1.90241 1.90137 0.947055 3.11001 0.478883C3.80866 0.215085 4.54736 0.0730271 5.29401 0.0588828C6.24901 0.00488281 6.56301 0.00488281 9.00201 0.00488281C11.482 0.00488281 11.767 0.0178828 12.712 0.0588828C13.4606 0.0731494 14.2013 0.215192 14.902 0.478883C16.1103 0.947586 17.0659 1.90276 17.535 3.11088C17.8021 3.82008 17.9446 4.57013 17.956 5.32788C18.012 6.28588 18.012 6.59888 18.012 9.03888C18.012 11.4789 17.998 11.7989 17.956 12.7459C17.9411 13.4941 17.7991 14.2343 17.536 14.9349C17.0657 16.1426 16.1101 17.0975 14.902 17.5669C14.2023 17.8291 13.4631 17.9707 12.716 17.9859C11.761 18.0409 11.448 18.0409 9.00201 18.0409ZM8.96801 1.58788C6.52201 1.58788 6.26801 1.59988 5.31301 1.64288C4.743 1.65043 4.17849 1.75562 3.64401 1.95388C2.85477 2.25589 2.23024 2.87787 1.92501 3.66588C1.72523 4.20618 1.62002 4.77686 1.61401 5.35288C1.56101 6.32188 1.56101 6.57588 1.56101 9.00488C1.56101 11.4049 1.57001 11.6959 1.61401 12.6589C1.62297 13.2291 1.72811 13.7937 1.92501 14.3289C2.23069 15.1164 2.85511 15.7379 3.64401 16.0399C4.17813 16.2395 4.74287 16.3447 5.31301 16.3509C6.28101 16.4069 6.53601 16.4069 8.96801 16.4069C11.421 16.4069 11.675 16.3949 12.622 16.3509C13.1924 16.3439 13.7574 16.2387 14.292 16.0399C15.0765 15.7353 15.6969 15.1152 16.002 14.3309C16.2014 13.7901 16.3066 13.2192 16.313 12.6429H16.324C16.367 11.6869 16.367 11.4319 16.367 8.98888C16.367 6.54588 16.356 6.28888 16.313 5.33388C16.304 4.76433 16.1989 4.20039 16.002 3.66588C15.6976 2.88046 15.0771 2.25918 14.292 1.95388C13.7575 1.75462 13.1925 1.6494 12.622 1.64288C11.655 1.58788 11.402 1.58788 8.96801 1.58788ZM9.00201 13.6239C7.132 13.6251 5.44543 12.4996 4.72888 10.7723C4.01232 9.04506 4.40692 7.05621 5.72865 5.73334C7.05037 4.41047 9.03888 4.01415 10.7668 4.72921C12.4947 5.44428 13.6216 7.12987 13.622 8.99988C13.6193 11.5509 11.5531 13.6189 9.00201 13.6239ZM9.00201 5.99788C7.34516 5.99788 6.00201 7.34103 6.00201 8.99788C6.00201 10.6547 7.34516 11.9979 9.00201 11.9979C10.6589 11.9979 12.002 10.6547 12.002 8.99788C11.9982 7.34263 10.6573 6.00173 9.00201 5.99788ZM13.802 5.28489C13.2074 5.28268 12.7269 4.79947 12.728 4.20489C12.7291 3.61031 13.2114 3.12889 13.806 3.12889C14.4006 3.12889 14.8829 3.6103 14.884 4.20488C14.8843 4.49174 14.7703 4.76691 14.5673 4.96956C14.3642 5.17222 14.0889 5.28568 13.802 5.28489Z" fill="#121212"/>
</symbol><symbol id="logo_HealhtyCarely" viewBox="0 0 174 25">
<path d="M0.68 18.5V1.22H3.572V8.492H11.756V1.22H14.636V18.5H11.756V11.204H3.572V18.5H0.68ZM24.6123 18.86C23.3003 18.86 22.1483 18.576 21.1563 18.008C20.1643 17.44 19.3883 16.652 18.8283 15.644C18.2763 14.636 18.0003 13.476 18.0003 12.164C18.0003 10.748 18.2723 9.52 18.8163 8.48C19.3603 7.432 20.1163 6.62 21.0843 6.044C22.0523 5.468 23.1723 5.18 24.4443 5.18C25.7883 5.18 26.9283 5.496 27.8643 6.128C28.8083 6.752 29.5083 7.636 29.9643 8.78C30.4203 9.924 30.5923 11.272 30.4803 12.824H27.6123V11.768C27.6043 10.36 27.3563 9.332 26.8683 8.684C26.3803 8.036 25.6123 7.712 24.5643 7.712C23.3803 7.712 22.5003 8.08 21.9243 8.816C21.3483 9.544 21.0603 10.612 21.0603 12.02C21.0603 13.332 21.3483 14.348 21.9243 15.068C22.5003 15.788 23.3403 16.148 24.4443 16.148C25.1563 16.148 25.7683 15.992 26.2803 15.68C26.8003 15.36 27.2003 14.9 27.4803 14.3L30.3363 15.164C29.8403 16.332 29.0723 17.24 28.0323 17.888C27.0003 18.536 25.8603 18.86 24.6123 18.86ZM20.1483 12.824V10.64H29.0643V12.824H20.1483ZM37.2674 18.86C36.3314 18.86 35.5394 18.684 34.8914 18.332C34.2434 17.972 33.7514 17.496 33.4154 16.904C33.0874 16.312 32.9234 15.66 32.9234 14.948C32.9234 14.324 33.0274 13.764 33.2354 13.268C33.4434 12.764 33.7634 12.332 34.1954 11.972C34.6274 11.604 35.1874 11.304 35.8754 11.072C36.3954 10.904 37.0034 10.752 37.6994 10.616C38.4034 10.48 39.1634 10.356 39.9794 10.244C40.8034 10.124 41.6634 9.996 42.5594 9.86L41.5274 10.448C41.5354 9.552 41.3354 8.892 40.9274 8.468C40.5194 8.044 39.8314 7.832 38.8634 7.832C38.2794 7.832 37.7154 7.968 37.1714 8.24C36.6274 8.512 36.2474 8.98 36.0314 9.644L33.3914 8.816C33.7114 7.72 34.3194 6.84 35.2154 6.176C36.1194 5.512 37.3354 5.18 38.8634 5.18C40.0154 5.18 41.0274 5.368 41.8994 5.744C42.7794 6.12 43.4314 6.736 43.8554 7.592C44.0874 8.048 44.2274 8.516 44.2754 8.996C44.3234 9.468 44.3474 9.984 44.3474 10.544V18.5H41.8154V15.692L42.2354 16.148C41.6514 17.084 40.9674 17.772 40.1834 18.212C39.4074 18.644 38.4354 18.86 37.2674 18.86ZM37.8434 16.556C38.4994 16.556 39.0594 16.44 39.5234 16.208C39.9874 15.976 40.3554 15.692 40.6274 15.356C40.9074 15.02 41.0954 14.704 41.1914 14.408C41.3434 14.04 41.4274 13.62 41.4434 13.148C41.4674 12.668 41.4794 12.28 41.4794 11.984L42.3674 12.248C41.4954 12.384 40.7474 12.504 40.1234 12.608C39.4994 12.712 38.9634 12.812 38.5154 12.908C38.0674 12.996 37.6714 13.096 37.3274 13.208C36.9914 13.328 36.7074 13.468 36.4754 13.628C36.2434 13.788 36.0634 13.972 35.9354 14.18C35.8154 14.388 35.7554 14.632 35.7554 14.912C35.7554 15.232 35.8354 15.516 35.9954 15.764C36.1554 16.004 36.3874 16.196 36.6914 16.34C37.0034 16.484 37.3874 16.556 37.8434 16.556ZM48.4316 18.5V0.86H51.3236V18.5H48.4316ZM64.6021 18.5V12.26C64.6021 11.852 64.5741 11.4 64.5181 10.904C64.4621 10.408 64.3301 9.932 64.1221 9.476C63.9221 9.012 63.6181 8.632 63.2101 8.336C62.8101 8.04 62.2661 7.892 61.5781 7.892C61.2101 7.892 60.8461 7.952 60.4861 8.072C60.1261 8.192 59.7981 8.4 59.5021 8.696C59.2141 8.984 58.9821 9.384 58.8061 9.896C58.6301 10.4 58.5421 11.048 58.5421 11.84L56.8261 11.108C56.8261 10.004 57.0381 9.004 57.4621 8.108C57.8941 7.212 58.5261 6.5 59.3581 5.972C60.1901 5.436 61.2141 5.168 62.4301 5.168C63.3901 5.168 64.1821 5.328 64.8061 5.648C65.4301 5.968 65.9261 6.376 66.2941 6.872C66.6621 7.368 66.9341 7.896 67.1101 8.456C67.2861 9.016 67.3981 9.548 67.4461 10.052C67.5021 10.548 67.5301 10.952 67.5301 11.264V18.5H64.6021ZM55.6141 18.5V1.22H58.1941V10.316H58.5421V18.5H55.6141ZM78.9776 18.5C78.1216 18.66 77.2816 18.728 76.4576 18.704C75.6416 18.688 74.9096 18.54 74.2616 18.26C73.6136 17.972 73.1216 17.52 72.7856 16.904C72.4896 16.344 72.3336 15.772 72.3176 15.188C72.3016 14.604 72.2936 13.944 72.2936 13.208V1.94H75.1736V13.04C75.1736 13.56 75.1776 14.016 75.1856 14.408C75.2016 14.8 75.2856 15.12 75.4376 15.368C75.7256 15.848 76.1856 16.116 76.8176 16.172C77.4496 16.228 78.1696 16.196 78.9776 16.076V18.5ZM69.9416 7.808V5.54H78.9776V7.808H69.9416ZM83.8368 24.26L86.3328 17.408L86.3808 19.424L80.7288 5.54H83.7408L87.7488 15.812H86.9808L90.8808 5.54H93.7728L86.5488 24.26H83.8368Z" fill="#121212"/>
<path d="M103.591 18.86C101.863 18.86 100.383 18.484 99.1505 17.732C97.9185 16.972 96.9705 15.916 96.3065 14.564C95.6505 13.212 95.3225 11.644 95.3225 9.86C95.3225 8.076 95.6505 6.508 96.3065 5.156C96.9705 3.804 97.9185 2.752 99.1505 2C100.383 1.24 101.863 0.86 103.591 0.86C105.583 0.86 107.243 1.36 108.571 2.36C109.899 3.352 110.831 4.692 111.367 6.38L108.451 7.184C108.115 6.056 107.543 5.176 106.735 4.544C105.927 3.904 104.879 3.584 103.591 3.584C102.431 3.584 101.463 3.844 100.687 4.364C99.9185 4.884 99.3385 5.616 98.9465 6.56C98.5625 7.496 98.3665 8.596 98.3585 9.86C98.3585 11.124 98.5505 12.228 98.9345 13.172C99.3265 14.108 99.9105 14.836 100.687 15.356C101.463 15.876 102.431 16.136 103.591 16.136C104.879 16.136 105.927 15.816 106.735 15.176C107.543 14.536 108.115 13.656 108.451 12.536L111.367 13.34C110.831 15.028 109.899 16.372 108.571 17.372C107.243 18.364 105.583 18.86 103.591 18.86ZM118.345 18.86C117.409 18.86 116.617 18.684 115.969 18.332C115.321 17.972 114.829 17.496 114.493 16.904C114.165 16.312 114.001 15.66 114.001 14.948C114.001 14.324 114.105 13.764 114.313 13.268C114.521 12.764 114.841 12.332 115.273 11.972C115.705 11.604 116.265 11.304 116.953 11.072C117.473 10.904 118.081 10.752 118.777 10.616C119.481 10.48 120.241 10.356 121.057 10.244C121.881 10.124 122.741 9.996 123.637 9.86L122.605 10.448C122.613 9.552 122.413 8.892 122.005 8.468C121.597 8.044 120.909 7.832 119.941 7.832C119.357 7.832 118.793 7.968 118.249 8.24C117.705 8.512 117.325 8.98 117.109 9.644L114.469 8.816C114.789 7.72 115.397 6.84 116.293 6.176C117.197 5.512 118.413 5.18 119.941 5.18C121.093 5.18 122.105 5.368 122.977 5.744C123.857 6.12 124.509 6.736 124.933 7.592C125.165 8.048 125.305 8.516 125.353 8.996C125.401 9.468 125.425 9.984 125.425 10.544V18.5H122.893V15.692L123.313 16.148C122.729 17.084 122.045 17.772 121.261 18.212C120.485 18.644 119.513 18.86 118.345 18.86ZM118.921 16.556C119.577 16.556 120.137 16.44 120.601 16.208C121.065 15.976 121.433 15.692 121.705 15.356C121.985 15.02 122.173 14.704 122.269 14.408C122.421 14.04 122.505 13.62 122.521 13.148C122.545 12.668 122.557 12.28 122.557 11.984L123.445 12.248C122.573 12.384 121.825 12.504 121.201 12.608C120.577 12.712 120.041 12.812 119.593 12.908C119.145 12.996 118.749 13.096 118.405 13.208C118.069 13.328 117.785 13.468 117.553 13.628C117.321 13.788 117.141 13.972 117.013 14.18C116.893 14.388 116.833 14.632 116.833 14.912C116.833 15.232 116.913 15.516 117.073 15.764C117.233 16.004 117.465 16.196 117.769 16.34C118.081 16.484 118.465 16.556 118.921 16.556ZM129.269 18.5V5.54H131.825V8.696L131.513 8.288C131.673 7.856 131.885 7.464 132.149 7.112C132.421 6.752 132.745 6.456 133.121 6.224C133.441 6.008 133.793 5.84 134.177 5.72C134.569 5.592 134.969 5.516 135.377 5.492C135.785 5.46 136.181 5.476 136.565 5.54V8.24C136.181 8.128 135.737 8.092 135.233 8.132C134.737 8.172 134.289 8.312 133.889 8.552C133.489 8.768 133.161 9.044 132.905 9.38C132.657 9.716 132.473 10.1 132.353 10.532C132.233 10.956 132.173 11.416 132.173 11.912V18.5H129.269ZM145.233 18.86C143.921 18.86 142.769 18.576 141.777 18.008C140.785 17.44 140.009 16.652 139.449 15.644C138.897 14.636 138.621 13.476 138.621 12.164C138.621 10.748 138.893 9.52 139.437 8.48C139.981 7.432 140.737 6.62 141.705 6.044C142.673 5.468 143.793 5.18 145.065 5.18C146.409 5.18 147.549 5.496 148.485 6.128C149.429 6.752 150.129 7.636 150.585 8.78C151.041 9.924 151.213 11.272 151.101 12.824H148.233V11.768C148.225 10.36 147.977 9.332 147.489 8.684C147.001 8.036 146.233 7.712 145.185 7.712C144.001 7.712 143.121 8.08 142.545 8.816C141.969 9.544 141.681 10.612 141.681 12.02C141.681 13.332 141.969 14.348 142.545 15.068C143.121 15.788 143.961 16.148 145.065 16.148C145.777 16.148 146.389 15.992 146.901 15.68C147.421 15.36 147.821 14.9 148.101 14.3L150.957 15.164C150.461 16.332 149.693 17.24 148.653 17.888C147.621 18.536 146.481 18.86 145.233 18.86ZM140.769 12.824V10.64H149.685V12.824H140.769ZM154.738 18.5V0.86H157.63V18.5H154.738ZM163.649 24.26L166.145 17.408L166.193 19.424L160.541 5.54H163.553L167.561 15.812H166.793L170.693 5.54H173.585L166.361 24.26H163.649Z" fill="#4D77FF"/>
</symbol><symbol id="Search" viewBox="0 0 34 34">
<ellipse cx="14.6653" cy="14.7554" rx="14.332" ry="14.4221" fill="#4D77FF"/>
<path opacity="0.4" d="M31.4577 33.5921C30.9009 33.5741 30.3715 33.345 29.9756 32.9508L26.5815 28.9836C25.8539 28.3181 25.7944 27.1872 26.4481 26.4482V26.4482C26.7541 26.1385 27.1702 25.9644 27.6042 25.9644C28.0382 25.9644 28.4542 26.1385 28.7602 26.4482L33.0287 29.8635C33.6436 30.4928 33.8333 31.4271 33.5131 32.2487C33.1929 33.0703 32.4227 33.6257 31.5466 33.6667L31.4577 33.5921Z" fill="#4D77FF"/>
</symbol><symbol id="slider-button" viewBox="0 0 34 18">
<path d="M27.2833 10.6667L22.9833 14.9834L25.3333 17.3334L33.6666 9.00008L25.3333 0.666748L22.9833 3.01675L27.2833 7.33341H0.333313V10.6667H27.2833Z" fill="#121212"/>
</symbol><symbol id="Star" viewBox="0 0 40 40">
<path opacity="0.4" d="M21.6272 5.18936L25.338 12.6465C25.6114 13.1868 26.1331 13.562 26.7349 13.6453L35.0701 14.8593C35.5568 14.9276 35.9986 15.1844 36.297 15.5763C36.5921 15.9632 36.7188 16.4534 36.6471 16.9353C36.5887 17.3355 36.4004 17.7057 36.112 17.9892L30.0723 23.8438C29.6306 24.2524 29.4305 24.8577 29.5372 25.4497L31.0242 33.6805C31.1826 34.6744 30.5241 35.6115 29.5372 35.7999C29.1305 35.865 28.7137 35.7966 28.347 35.6098L20.912 31.7362C20.3602 31.4577 19.7084 31.4577 19.1566 31.7362L11.7217 35.6098C10.8082 36.0951 9.67628 35.7649 9.16784 34.8644C8.97946 34.5059 8.91278 34.0974 8.97446 33.6989L10.4614 25.4663C10.5681 24.876 10.3664 24.2674 9.92633 23.8589L3.8867 18.0075C3.16822 17.3139 3.14655 16.1716 3.83836 15.4529C3.85336 15.4379 3.87003 15.4212 3.8867 15.4046C4.17343 15.1127 4.55018 14.9276 4.95693 14.8793L13.2921 13.6637C13.8922 13.5786 14.414 13.2068 14.689 12.6632L18.2665 5.18936C18.5849 4.54904 19.245 4.1505 19.9618 4.16718H20.1852C20.807 4.24221 21.3488 4.62741 21.6272 5.18936" fill="#4D77FF"/>
<path d="M19.9867 31.5285C19.6639 31.5385 19.3493 31.6253 19.0665 31.7804L11.6679 35.6452C10.7626 36.0773 9.67928 35.742 9.17173 34.8763C8.98369 34.5227 8.91546 34.1173 8.9787 33.7203L10.4564 25.5053C10.5563 24.9081 10.3566 24.3009 9.92224 23.8806L3.87991 18.0308C3.16268 17.3286 3.14937 16.1759 3.85162 15.457C3.8616 15.447 3.86992 15.4387 3.87991 15.4303C4.16613 15.1468 4.53556 14.9599 4.93328 14.9016L13.2754 13.6739C13.8795 13.5972 14.4037 13.2202 14.6699 12.6731L18.296 5.1052C18.6404 4.4947 19.3011 4.13107 20 4.16943C19.9867 4.66484 19.9867 31.1916 19.9867 31.5285" fill="#4D77FF"/>
</symbol><symbol id="twiter" viewBox="0 0 22 17">
<path d="M18.995 2.68799C19.8914 2.15208 20.5622 1.30823 20.882 0.313989C20.0397 0.813791 19.118 1.16587 18.157 1.35499C16.8246 -0.0544839 14.7135 -0.397485 13.0034 0.517645C11.2933 1.43277 10.4075 3.37948 10.841 5.26999C7.39062 5.09676 4.17598 3.4669 1.99702 0.785989C0.859855 2.74741 1.44097 5.25477 3.32502 6.51599C2.64373 6.49409 1.97754 6.30963 1.38202 5.97799C1.38202 5.99599 1.38202 6.01399 1.38202 6.03199C1.38241 8.07514 2.82239 9.83507 4.82502 10.24C4.19308 10.4119 3.53022 10.4372 2.88702 10.314C3.45022 12.0613 5.06057 13.2583 6.89602 13.294C5.37585 14.4871 3.49849 15.1342 1.56602 15.131C1.22349 15.1315 0.881226 15.1118 0.541016 15.072C2.50341 16.333 4.78738 17.0023 7.12002 17C10.3653 17.0223 13.484 15.7429 15.7787 13.448C18.0734 11.1531 19.3526 8.03424 19.33 4.78899C19.33 4.60299 19.3257 4.41799 19.317 4.23399C20.1575 3.62659 20.8828 2.87414 21.459 2.01199C20.676 2.35905 19.8455 2.58691 18.995 2.68799Z" fill="#121212"/>
</symbol></svg>